# AST/ASF file generated using VICON BodyLanguage
# -----------------------------------------------
:version 1.10
:name VICON
:units
  mass 1.0
  length 0.45
  angle deg
:documentation
   .ast/.asf automatically generated from VICON data using
   VICON BodyBuilder and BodyLanguage model FoxedUp or BRILLIANT.MOD
:root
   order TX TY TZ RX RY RZ
   axis XYZ
   position 0 0 0  
   orientation 0 0 0 
:bonedata
  begin
     id 1 
     name lhipjoint
     direction 0.62366 -0.717238 0.310833 
     length 2.53602 
     axis 0 0 0  XYZ
  end
  begin
     id 2 
     name lfemur
     direction 0.34202 -0.939693 0  
     length 7.40817  
     axis 0 0 20  XYZ
    dof rx ry rz
    limits (-160.0 20.0)
           (-70.0 70.0)
           (-60.0 70.0)
  end
  begin
     id 3 
     name ltibia
     direction 0.34202 -0.939693 0   
     length 7.7045   
     axis 0 0 20   XYZ
    dof rx
    limits (-10.0 170.0)
  end
  begin
     id 4 
     name lfoot
     direction 0.0673888 -0.185149 0.980397   
     length 2.09456   
     axis -90 7.62852e-016 20   XYZ
    dof rx rz
    limits (-45.0 90.0)
           (-70.0 20.0)
  end
  begin
     id 5 
     name ltoes
     direction 1.53575e-011 -4.21994e-011 1   
     length 1.05543   
     axis -90 7.62852e-016 20   XYZ
    dof rx
    limits (-90.0 20.0)
  end
  begin
     id 6 
     name rhipjoint
     direction -0.489018 -0.800347 0.346851   
     length 2.27268  
     axis 0 0 0  XYZ 
  end
  begin
     id 7 
     name rfemur
     direction -0.34202 -0.939693 0   
     length 7.55487   
     axis 0 0 -20   XYZ
    dof rx ry rz
    limits (-160.0 20.0)
           (-70.0 70.0)
           (-70.0 60.0)
  end
  begin
     id 8 
     name rtibia
     direction -0.34202 -0.939693 0   
     length 7.78969   
     axis 0 0 -20   XYZ
    dof rx
    limits (-10.0 170.0)
 end
 begin
     id 9 
     name rfoot
     direction -0.0859318 -0.236096 0.967923   
     length 2.19143  
     axis -90 -7.62852e-016 -20   XYZ
    dof rx rz
    limits (-45.0 90.0)
           (-20.0 70.0)
  end
  begin
     id 10 
     name rtoes
     direction -1.53538e-011 -4.21989e-011 1   
     length 1.09845   
     axis -90 -7.62852e-016 -20   XYZ
    dof rx
    limits (-90.0 20.0)
  end
  begin
     id 11 
     name lowerback
     direction -0.00762546 0.998978 -0.0445553   
     length 1.98161   
     axis 0 0 0   XYZ
    dof rx ry rz
    limits (-20.0 45.0)
           (-30.0 30.0)
           (-30.0 30.0)
  end
  begin
     id 12 
     name upperback
     direction 0.0422361 0.998867 -0.0219156   
     length 1.97558   
     axis 0 0 0   XYZ
    dof rx ry rz
    limits (-20.0 45.0)
           (-30.0 30.0)
           (-30.0 30.0)
  end
  begin
     id 13 
     name thorax
     direction 0.0442465 0.999021 7.47603e-005   
     length 1.97799   
     axis 0 0 0   XYZ
    dof rx ry rz
    limits (-20.0 45.0)
           (-30.0 30.0)
           (-30.0 30.0)
  end
  begin
     id 14 
     name lowerneck
     direction 0.00312169 0.984641 0.174564   
     length 1.78995   
     axis 0 0 0   XYZ
    dof rx ry rz
    limits (-20.0 45.0)
           (-30.0 30.0)
           (-30.0 30.0)
  end
  begin
     id 15 
     name upperneck
     direction -0.0383028 0.985255 -0.166749   
     length 1.83053   
     axis 0 0 0   XYZ
    dof rx ry rz
    limits (-20.0 45.0)
           (-30.0 30.0)
           (-30.0 30.0)
  end
  begin
     id 16
     name head
     direction -0.0129546 0.997059 -0.0755386  
     length 1.84088  
     axis 0 0 0   XYZ
    dof rx ry rz
    limits (-20.0 45.0)
           (-30.0 30.0)
           (-30.0 30.0)
  end
  begin
     id 17 
     name lclavicle
     direction 0.912857 0.370519 -0.171488  
     length 3.51279  
     axis 0 0 0   XYZ
    dof ry rz
    limits (-20.0 10.0)
           (0.0 20.0)
  end
  begin
     id 18 
     name lhumerus
     direction 1 -4.48962e-011 3.64361e-027   
     length 4.95663   
     axis 180 -30 -90   XYZ
    dof rx ry rz
    limits (-60.0 90.0)
           (-90.0 90.0)
           (-90.0 90.0)
  end
  begin
     id 19
     name lradius
     direction 1 -4.48974e-011 5.97202e-027   
     length 3.38177   
     axis 180 -30 -90   XYZ
    dof rx
    limits (-10.0 170.0)
  end
  begin
     id 20
     name lwrist
     direction 1 -4.4896e-011 9.83288e-027   
     length 1.69088   
     axis -9.31221e-015 90 90   XYZ
    dof ry
    limits (-180.0 0.0)
 end
  begin
     id 21 
     name lhand
     direction 1 -4.4902e-011 1.96551e-026   
     length 0.662909   
     axis -1.25475e-014 90 90   XYZ
    dof rx rz
    limits (-90.0 90.0)
           (-45.0 45.0)
  end
  begin
     id 22 
     name lfingers
     direction 1 -4.48971e-011 3.93277e-026   
     length 0.534454   
     axis -2.50945e-014 90 90   XYZ
    dof rx
    limits (0.0 90.0)
  end
  begin
     id 23
     name lthumb
     direction 0.707107 -6.34933e-011 0.707107   
     length 0.767373   
     axis -90 45 -4.80359e-014   XYZ
    dof rx rz
    limits (-45.0 45.0)
           (-45.0 45.0)
  end
  begin
     id 24 
     name rclavicle
     direction -0.900919 0.395364 -0.178976   
     length 3.40627  
     axis 0 0 0   XYZ 
    dof ry rz
    limits (-10.0 20.0)
           (-20.0 0.0)
  end
  begin
     id 25 
     name rhumerus
     direction -1 -4.48969e-011 1.03875e-027  
     length 5.08365   
     axis 180 30 90   XYZ
    dof rx ry rz
    limits (-90.0 60.0)
           (-90.0 90.0)
           (-90.0 90.0)
  end
  begin
     id 26 
     name rradius
     direction -1 -4.48951e-011 5.02733e-027   
     length 3.35984   
     axis 180 30 90   XYZ
    dof rx
    limits (-10.0 170.0)
  end
  begin
     id 27 
     name rwrist
     direction -1 -4.49011e-011 9.82828e-027   
     length 1.67992   
     axis -9.31221e-015 -90 -90   XYZ
    dof ry
    limits (-180.0 0.0)
  end
  begin
     id 28
     name rhand
     direction -1 -4.48894e-011 1.96774e-026   
     length 0.820764   
     axis -1.25475e-014 -90 -90   XYZ
    dof rx rz
    limits (-90.0 90.0)
           (-45.0 45.0)
  end
  begin
     id 29
     name rfingers
     direction -1 -4.49095e-011 3.92833e-026   
     length 0.661721   
     axis -2.50945e-014 -90 -90   XYZ
    dof rx
    limits (0.0 90.0)
  end
  begin
     id 30
     name rthumb
     direction -0.707107 -6.34881e-011 0.707107   
     length 0.950103   
     axis -90 -45 4.80359e-014   XYZ
    dof rx rz
    limits (-45.0 45.0)
           (-45.0 45.0)
  end
:hierarchy
  begin
    root lhipjoint rhipjoint lowerback
    lhipjoint lfemur
    lfemur ltibia
    ltibia lfoot
    lfoot ltoes
    rhipjoint rfemur
    rfemur rtibia
    rtibia rfoot
    rfoot rtoes
    lowerback upperback
    upperback thorax
    thorax lowerneck lclavicle rclavicle
    lowerneck upperneck
    upperneck head
    lclavicle lhumerus
    lhumerus lradius
    lradius lwrist
    lwrist lhand lthumb
    lhand lfingers
    rclavicle rhumerus
    rhumerus rradius
    rradius rwrist
    rwrist rhand rthumb
    rhand rfingers
  end

#!OML:ASF I:\golf\golf\golf 2\Subject 1\2002-09-07\Subject1.ASF
:FULLY-SPECIFIED
:DEGREES
1
root -6.65094 17.878 0.215004 -115.879 85.0484 -132.268
lowerback 2.09803 1.50859 -1.79962
upperback 3.96395 2.05844 4.99324
thorax 2.67101 0.965765 6.20545
lowerneck -13.7842 -3.29426 1.68156
upperneck 40.6874 -2.32706 -2.56034
head 17.068 -0.398483 -1.67942
rclavicle 3.69739e-014 4.69132e-014
rhumerus -6.48676 5.06699 -100.141
rradius 22.8129
rwrist -35.4548
rhand -18.4986 -5.2382
rfingers 7.12502
rthumb 7.78907 -35.0747
lclavicle 3.69739e-014 4.69132e-014
lhumerus -15.871 -47.4368 113.853
lradius 34.0182
lwrist 48.7402
lhand -15.3078 65.8537
lfingers 7.12502
lthumb -169.132 84.4475
rfemur -25.5363 -0.520298 11.3192
rtibia 24.3668
rfoot -10.396 -14.0857
rtoes 19.4103
lfemur -27.5761 4.5664 -6.24849
ltibia 25.4514
lfoot -8.95077 1.11624
ltoes -23.8937
2
root -6.65122 17.8773 0.217269 -116.178 85.0729 -132.586
lowerback 2.10697 1.49916 -1.85398
upperback 3.97254 2.04565 5.00231
thorax 2.67463 0.957563 6.24632
lowerneck -13.8304 -3.294 1.74832
upperneck 40.7009 -2.29815 -2.68761
head 17.0838 -0.393962 -1.74516
rclavicle -3.97569e-014 7.95139e-016
rhumerus -6.48861 5.41116 -100.105
rradius 22.8758
rwrist -35.7876
rhand -18.5517 -5.14531
rfingers 7.12502
rthumb 7.73786 -34.9837
lclavicle -3.97569e-014 7.95139e-016
lhumerus -15.8528 -47.4524 113.86
lradius 34.0377
lwrist 48.8092
lhand -15.309 65.8622
lfingers 7.12502
lthumb -169.133 84.439
rfemur -25.6039 -0.599581 11.3075
rtibia 24.4453
rfoot -11.0213 -13.882
rtoes 22.8418
lfemur -27.5926 4.56973 -6.28196
ltibia 25.4347
lfoot -8.90222 1.10491
ltoes -23.6052
3
root -6.65138 17.8774 0.21798 -116.6 85.1178 -133.019
lowerback 2.11821 1.48812 -1.92734
upperback 3.98255 2.03065 5.0163
thorax 2.67806 0.947657 6.30334
lowerneck -13.8373 -3.30592 1.75552
upperneck 40.6767 -2.29365 -2.76012
head 17.0703 -0.402613 -1.7782
rclavicle -2.74323e-014 -4.45278e-014
rhumerus -6.52008 5.68485 -100.078
rradius 22.9605
rwrist -35.9943
rhand -18.7293 -5.16623
rfingers 7.12502
rthumb 7.56641 -35.0109
lclavicle -2.74323e-014 -4.45278e-014
lhumerus -15.7968 -47.4536 113.869
lradius 34.044
lwrist 48.9891
lhand -15.3603 65.8182
lfingers 7.12502
lthumb -169.183 84.4803
rfemur -25.6147 -0.623071 11.2445
rtibia 24.4463
rfoot -10.8464 -13.9695
rtoes 21.0675
lfemur -27.6171 4.56019 -6.3476
ltibia 25.4562
lfoot -8.91645 1.1302
ltoes -23.4212
4
root -6.65095 17.8779 0.21807 -116.64 85.1165 -133.041
lowerback 2.11047 1.47781 -1.88216
upperback 4.02024 2.0169 5.0033
thorax 2.72502 0.940788 6.26514
lowerneck -13.7837 -3.30698 1.75872
upperneck 40.5908 -2.31051 -2.74763
head 17.008 -0.411701 -1.77338
rclavicle 3.81667e-014 3.57812e-014
rhumerus -6.49655 5.71174 -100.102
rradius 22.9875
rwrist -35.9373
rhand -18.7965 -5.29843
rfingers 7.12502
rthumb 7.50161 -35.1454
lclavicle 3.81667e-014 3.57812e-014
lhumerus -15.7113 -47.4479 113.808
lradius 34.0075
lwrist 49.058
lhand -15.3261 65.7434
lfingers 7.12502
lthumb -169.15 84.5569
rfemur -25.6027 -0.665384 11.2595
rtibia 24.4607
rfoot -7.94393 -14.6596
rtoes -5.49357
lfemur -27.6086 4.52195 -6.34044
ltibia 25.4761
lfoot -8.93206 1.14897
ltoes -23.4539
5
root -6.65115 17.8783 0.218236 -116.485 85.0708 -132.873
lowerback 2.10481 1.49852 -1.67006
upperback 4.05232 2.04473 4.9137
thorax 2.76693 0.960311 6.04944
lowerneck -13.7473 -3.3216 1.81845
upperneck 40.5436 -2.39731 -2.64643
head 16.97 -0.426261 -1.75203
rclavicle 1.15295e-014 2.94201e-014
rhumerus -6.40186 5.48197 -100.198
rradius 22.9366
rwrist -35.7355
rhand -18.7164 -5.39096
rfingers 7.12502
rthumb 7.57891 -35.2352
lclavicle 1.15295e-014 2.94201e-014
lhumerus -15.7224 -47.6161 113.726
lradius 34.0001
lwrist 49.1423
lhand -15.3502 65.755
lfingers 7.12502
lthumb -169.173 84.5441
rfemur -25.5917 -0.667829 11.3176
rtibia 24.4713
rfoot -7.89405 -14.6713
rtoes -5.65341
lfemur -27.6034 4.46505 -6.27014
ltibia 25.4967
lfoot -8.92832 1.164
ltoes -23.5314
6
root -6.6517 17.8785 0.217777 -116.485 85.0515 -132.91
lowerback 2.07797 1.52329 -1.49417
upperback 4.04957 2.07716 4.80971
thorax 2.78372 0.981784 5.83929
lowerneck -13.7618 -3.32443 1.94162
upperneck 40.5765 -2.45752 -2.59687
head 16.9878 -0.423307 -1.76319
rclavicle 2.66371e-014 -1.19271e-014
rhumerus -6.30187 5.12408 -100.302
rradius 22.8054
rwrist -35.368
rhand -18.4972 -5.37684
rfingers 7.12502
rthumb 7.79044 -35.2133
lclavicle 2.66371e-014 -1.19271e-014
lhumerus -15.7837 -47.8892 113.677
lradius 34.0301
lwrist 49.4201
lhand -15.6025 65.9614
lfingers 7.12502
lthumb -169.416 84.3251
rfemur -25.6381 -0.669207 11.3306
rtibia 24.4914
rfoot -7.88703 -14.6904
rtoes -5.56262
lfemur -27.6545 4.48234 -6.26126
ltibia 25.5089
lfoot -8.94777 1.16484
ltoes -24.0112
7
root -6.65192 17.8771 0.218196 -116.781 85.0577 -133.24
lowerback 2.07159 1.53947 -1.46007
upperback 4.03052 2.0983 4.76521
thorax 2.76749 0.993917 5.77222
lowerneck -13.7776 -3.32684 2.06267
upperneck 40.6357 -2.47783 -2.63221
head 17.02 -0.414243 -1.80558
rclavicle 1.27222e-014 1.74931e-014
rhumerus -6.28352 4.93288 -100.313
rradius 22.7534
rwrist -35.0352
rhand -18.2632 -5.40992
rfingers 7.12502
rthumb 8.01635 -35.2379
lclavicle 1.27222e-014 1.74931e-014
lhumerus -15.8356 -48.1067 113.695
lradius 34.04
lwrist 49.7667
lhand -15.8649 66.0942
lfingers 7.12502
lthumb -169.67 84.1795
rfemur -25.6894 -0.693696 11.3091
rtibia 24.5238
rfoot -7.96552 -14.7121
rtoes -5.14065
lfemur -27.7149 4.57374 -6.31092
ltibia 25.5057
lfoot -8.95516 1.07674
ltoes -23.8659
